<svg width="28" height="24" viewBox="0 0 28 24" fill="none" xmlns="http://www.w3.org/2000/svg">
<path d="M3.50004 3H24.5C24.8095 3 25.1062 3.10536 25.325 3.29289C25.5438 3.48043 25.6667 3.73478 25.6667 4V20C25.6667 20.2652 25.5438 20.5196 25.325 20.7071C25.1062 20.8946 24.8095 21 24.5 21H3.50004C3.19062 21 2.89388 20.8946 2.67508 20.7071C2.45629 20.5196 2.33337 20.2652 2.33337 20V4C2.33337 3.73478 2.45629 3.48043 2.67508 3.29289C2.89388 3.10536 3.19062 3 3.50004 3ZM23.3334 7.238L14.084 14.338L4.66671 7.216V19H23.3334V7.238ZM5.26287 5L14.0712 11.662L22.7524 5H5.26287Z" fill="white"/>
</svg>
